<svg width="22" height="23" viewBox="0 0 22 23" fill="none" xmlns="http://www.w3.org/2000/svg">
<g filter="url(#filter0_d_1_14030)">
<path d="M14 1.72119H8.00001C6.34316 1.72119 5.00001 3.06434 5.00001 4.72119V10.7212C5.00001 12.378 6.34316 13.7212 8.00001 13.7212H14C15.6569 13.7212 17 12.378 17 10.7212V4.72119C17 3.06434 15.6569 1.72119 14 1.72119Z" stroke="white" stroke-width="1.5"/>
<path d="M13.4 7.34337C13.4741 7.84272 13.3888 8.3527 13.1563 8.80078C12.9238 9.24886 12.5559 9.61222 12.105 9.83918C11.6541 10.0661 11.1431 10.1451 10.6447 10.0649C10.1463 9.98473 9.68589 9.74942 9.32894 9.39247C8.97198 9.03552 8.73667 8.5751 8.65647 8.0767C8.57627 7.5783 8.65527 7.06731 8.88223 6.6164C9.10919 6.16548 9.47254 5.79762 9.92062 5.56512C10.3687 5.33262 10.8787 5.24733 11.378 5.32137C11.8874 5.3969 12.3589 5.63425 12.723 5.99836C13.0872 6.36246 13.3245 6.83402 13.4 7.34337Z" stroke="white" stroke-width="1.5" stroke-linecap="round" stroke-linejoin="round"/>
</g>
<defs>
<filter id="filter0_d_1_14030" x="0.250013" y="0.971191" width="21.5" height="21.5" filterUnits="userSpaceOnUse" color-interpolation-filters="sRGB">
<feFlood flood-opacity="0" result="BackgroundImageFix"/>
<feColorMatrix in="SourceAlpha" type="matrix" values="0 0 0 0 0 0 0 0 0 0 0 0 0 0 0 0 0 0 127 0" result="hardAlpha"/>
<feOffset dy="4"/>
<feGaussianBlur stdDeviation="2"/>
<feComposite in2="hardAlpha" operator="out"/>
<feColorMatrix type="matrix" values="0 0 0 0 0 0 0 0 0 0 0 0 0 0 0 0 0 0 0.25 0"/>
<feBlend mode="normal" in2="BackgroundImageFix" result="effect1_dropShadow_1_14030"/>
<feBlend mode="normal" in="SourceGraphic" in2="effect1_dropShadow_1_14030" result="shape"/>
</filter>
</defs>
</svg>
